<svg width="125" height="123" viewBox="0 0 125 123" fill="none" xmlns="http://www.w3.org/2000/svg">
<g clip-path="url(#clip0_42_1707)">
<path d="M79.3547 28.311H45.6727C44.9051 28.3119 44.1693 28.6172 43.6265 29.16C43.0838 29.7027 42.7785 30.4386 42.7775 31.2061V106.065L42.3915 106.183L34.1287 108.713C33.7372 108.832 33.3142 108.792 32.9527 108.599C32.5912 108.407 32.3207 108.079 32.2006 107.688L7.62273 27.4057C7.50313 27.0141 7.54389 26.5911 7.73607 26.2295C7.92825 25.868 8.25612 25.5975 8.64763 25.4776L21.3805 21.5788L58.2936 10.28L71.0264 6.38121C71.2201 6.32157 71.4238 6.30073 71.6256 6.31988C71.8275 6.33903 72.0235 6.3978 72.2026 6.49281C72.3817 6.58783 72.5403 6.71723 72.6694 6.87361C72.7984 7.02999 72.8953 7.21028 72.9546 7.40416L79.237 27.9249L79.3547 28.311Z" fill="#F2F2F2"/>
<path d="M86.7063 27.9251L79.1345 3.1929C79.0086 2.78081 78.8026 2.39759 78.5285 2.06513C78.2543 1.73266 77.9174 1.45748 77.5368 1.25529C77.1563 1.05311 76.7397 0.927881 76.3107 0.88678C75.8818 0.845679 75.4489 0.889506 75.0369 1.01575L57.1353 6.49529L20.2242 17.796L2.32257 23.2775C1.49095 23.5328 0.79463 24.1077 0.386442 24.876C-0.0217462 25.6442 -0.108451 26.543 0.145363 27.3751L26.0241 111.9C26.2303 112.571 26.6463 113.159 27.2112 113.577C27.776 113.995 28.4599 114.221 29.1625 114.222C29.4877 114.222 29.811 114.173 30.1217 114.077L42.3933 110.321L42.7793 110.201V109.798L42.3933 109.916L30.0079 113.708C29.2738 113.932 28.481 113.856 27.8032 113.495C27.1255 113.135 26.6183 112.521 26.3928 111.788L0.51602 27.2612C0.404285 26.8977 0.365342 26.5158 0.401421 26.1373C0.437499 25.7588 0.547887 25.3911 0.72627 25.0553C0.904654 24.7195 1.14753 24.4222 1.44098 24.1804C1.73443 23.9386 2.0727 23.757 2.43641 23.6461L20.338 18.1647L57.2492 6.86587L75.1509 1.3844C75.4268 1.30021 75.7136 1.25729 76.002 1.25702C76.621 1.25841 77.2233 1.45797 77.7207 1.82648C78.218 2.19498 78.5844 2.71307 78.7659 3.30485L86.3029 27.9252L86.4226 28.3112H86.8241L86.7063 27.9251Z" fill="#D9D9D9"/>
<path d="M23.6802 25.541C23.3082 25.5408 22.946 25.4213 22.6469 25.2001C22.3478 24.979 22.1274 24.6678 22.0181 24.3122L19.5321 16.1919C19.4653 15.9738 19.4421 15.7447 19.4639 15.5176C19.4856 15.2905 19.5519 15.0699 19.6589 14.8685C19.766 14.667 19.9116 14.4886 20.0876 14.3434C20.2636 14.1983 20.4664 14.0892 20.6846 14.0225L54.6425 3.62625C55.083 3.49182 55.5589 3.53767 55.9656 3.75372C56.3724 3.96978 56.6768 4.33839 56.8121 4.77865L59.2981 12.899C59.4324 13.3395 59.3865 13.8153 59.1705 14.2221C58.9545 14.6288 58.5859 14.9332 58.1457 15.0686L24.1877 25.4648C24.0232 25.5153 23.8522 25.541 23.6802 25.541Z" fill="#D9D9D9"/>
<path d="M36.7023 9.5468C38.8342 9.5468 40.5625 7.81853 40.5625 5.68661C40.5625 3.55468 38.8342 1.82642 36.7023 1.82642C34.5704 1.82642 32.8421 3.55468 32.8421 5.68661C32.8421 7.81853 34.5704 9.5468 36.7023 9.5468Z" fill="#D9D9D9"/>
<path d="M36.702 8.13122C38.052 8.13122 39.1464 7.03683 39.1464 5.68683C39.1464 4.33682 38.052 3.24243 36.702 3.24243C35.352 3.24243 34.2576 4.33682 34.2576 5.68683C34.2576 7.03683 35.352 8.13122 36.702 8.13122Z" fill="white"/>
<path d="M116.314 113.235H51.0765C50.6415 113.235 50.2245 113.062 49.9169 112.754C49.6094 112.447 49.4364 112.03 49.4359 111.595V33.426C49.4364 32.991 49.6094 32.574 49.9169 32.2665C50.2245 31.9589 50.6415 31.7859 51.0765 31.7854H116.314C116.749 31.7859 117.166 31.9589 117.473 32.2665C117.781 32.574 117.954 32.991 117.954 33.426V111.595C117.954 112.03 117.781 112.447 117.473 112.754C117.166 113.062 116.749 113.235 116.314 113.235Z" fill="#E6E6E6"/>
<path d="M86.3018 27.925H45.6733C44.8035 27.9263 43.9696 28.2724 43.3545 28.8874C42.7395 29.5025 42.3934 30.3364 42.3922 31.2062V109.916L42.7782 109.798V31.2062C42.7791 30.4387 43.0844 29.7028 43.6272 29.1601C44.1699 28.6173 44.9058 28.312 45.6733 28.3111H86.4215L86.3018 27.925ZM121.719 27.925H45.6733C44.8035 27.9263 43.9696 28.2724 43.3545 28.8874C42.7395 29.5025 42.3934 30.3364 42.3922 31.2062V119.605C42.3934 120.474 42.7395 121.308 43.3545 121.923C43.9696 122.538 44.8035 122.885 45.6733 122.886H121.719C122.589 122.885 123.423 122.538 124.038 121.923C124.653 121.308 124.999 120.474 125 119.605V31.2062C124.999 30.3364 124.653 29.5025 124.038 28.8874C123.423 28.2724 122.589 27.9263 121.719 27.925ZM124.614 119.605C124.613 120.372 124.308 121.108 123.765 121.651C123.222 122.193 122.487 122.499 121.719 122.5H45.6733C44.9058 122.499 44.1699 122.193 43.6272 121.651C43.0844 121.108 42.7791 120.372 42.7782 119.605V31.2062C42.7791 30.4387 43.0844 29.7028 43.6272 29.1601C44.1699 28.6173 44.9058 28.312 45.6733 28.3111H121.719C122.487 28.312 123.222 28.6173 123.765 29.1601C124.308 29.7028 124.613 30.4387 124.614 31.2062V119.605Z" fill="#D9D9D9"/>
<path d="M101.452 36.4175H65.9383C65.4777 36.417 65.0362 36.2338 64.7106 35.9082C64.3849 35.5825 64.2017 35.141 64.2012 34.6804V26.188C64.2017 25.7275 64.3849 25.2859 64.7106 24.9603C65.0362 24.6346 65.4777 24.4514 65.9383 24.4509H101.452C101.913 24.4514 102.354 24.6346 102.68 24.9603C103.005 25.2859 103.189 25.7275 103.189 26.188V34.6804C103.189 35.141 103.005 35.5825 102.68 35.9082C102.354 36.2338 101.913 36.417 101.452 36.4175Z" fill="#FDA600"/>
<path d="M83.6968 25.03C85.8287 25.03 87.557 23.3017 87.557 21.1698C87.557 19.0378 85.8287 17.3096 83.6968 17.3096C81.5648 17.3096 79.8366 19.0378 79.8366 21.1698C79.8366 23.3017 81.5648 25.03 83.6968 25.03Z" fill="#FDA600"/>
<path d="M83.6968 23.5208C84.9953 23.5208 86.048 22.4681 86.048 21.1696C86.048 19.871 84.9953 18.8184 83.6968 18.8184C82.3983 18.8184 81.3456 19.871 81.3456 21.1696C81.3456 22.4681 82.3983 23.5208 83.6968 23.5208Z" fill="white"/>
</g>
<defs>
<clipPath id="clip0_42_1707">
<rect width="125" height="122.016" fill="white" transform="translate(0 0.870117)"/>
</clipPath>
</defs>
</svg>
