<svg width="24" height="24" viewBox="0 0 24 24" fill="none" xmlns="http://www.w3.org/2000/svg">
<path d="M22.35 12.2414C22.35 11.5274 22.2915 10.8104 22.1685 10.1084H12.2085V14.1509H17.9115C17.7938 14.7978 17.5461 15.4141 17.1834 15.9625C16.8206 16.5109 16.3503 16.98 15.801 17.3414V19.9664H19.2045C21.2025 18.1364 22.35 15.4364 22.35 12.2414Z" fill="#4285F4"/>
<path d="M12.2099 22.4997C15.0569 22.4997 17.4584 21.5697 19.2074 19.9647L15.8054 17.3412C14.8589 17.9817 13.6364 18.3447 12.2129 18.3447C9.4589 18.3447 7.1234 16.4967 6.2849 14.0127H2.7749V16.7172C3.6593 18.459 5.00928 19.9216 6.67486 20.9424C8.34044 21.9632 10.2564 22.5023 12.2099 22.4997Z" fill="#34A853"/>
<path d="M6.2807 14.0126C5.83837 12.7091 5.83837 11.2961 6.2807 9.99259V7.28809H2.7737C2.03516 8.74991 1.65039 10.3648 1.65039 12.0026C1.65039 13.6404 2.03516 15.2553 2.7737 16.7171L6.2807 14.0126Z" fill="#FBBC04"/>
<path d="M12.2099 5.65527C13.7138 5.63089 15.1676 6.19623 16.2599 7.23027L19.2749 4.23177C17.3587 2.44686 14.8284 1.4691 12.2099 1.50177C10.2559 1.49929 8.33943 2.03889 6.67374 3.06054C5.00806 4.0822 3.65841 5.54587 2.7749 7.28877L6.2789 9.99027C7.1129 7.50327 9.4529 5.65527 12.2069 5.65527H12.2099Z" fill="#EA4335"/>
</svg>
