<svg width="78" height="76" viewBox="0 0 78 76" fill="none" xmlns="http://www.w3.org/2000/svg">
<path d="M31.167 13.4471C24.2298 13.3465 21.3226 18.097 20.7361 20.4848C21.1382 20.7864 21.4063 20.6104 21.4901 20.4848C24.4057 16.9659 29.7427 17.1754 32.0467 17.7199C31.0413 25.4614 22.4117 39.2101 18.2226 45.1167C29.684 38.079 37.9114 24.5063 40.5924 18.5997C42.6032 19.404 45.8707 19.2699 47.2531 19.1024C53.7881 18.5997 57.0975 15.4578 57.9354 13.9498C54.1149 17.0664 46.8761 16.5051 43.7343 15.8349C41.4219 15.3322 34.3926 14.0335 31.167 13.4471Z" fill="#FDA600"/>
<path d="M35.8169 28.0252L39.0844 23.7523C43.307 23.149 45.2842 24.5901 45.7451 25.386C46.9515 28.9049 41.8073 33.3034 39.0844 35.0629C45.1167 29.0305 39.4195 27.8576 35.8169 28.0252Z" fill="#FDA600"/>
<path d="M63.465 41.0952C74.1221 32.3483 71.5081 25.2185 68.8689 22.7469C67.9116 21.5404 71.0673 22.9144 72.7648 23.7523C77.8923 27.4722 77.666 32.8426 76.912 35.0629C73.7953 42.8043 68.5757 46.8342 66.3555 47.8815C66.2549 52.9085 65.6433 55.1706 65.3501 55.6733H55.0449C54.2406 56.2765 47.672 58.9408 44.4883 60.1975L51.149 59.1921C49.0377 70.4524 43.3154 74.9432 40.7181 75.781H38.9587V61.4542L36.0682 61.9569V75.781H34.6858C29.2567 74.0718 26.0562 67.2771 25.1346 64.0934H22.3698C22.8725 66.8079 26.2657 72.3459 27.8995 74.7756C21.6661 73.167 16.4213 67.4028 14.5781 64.7217C3.82047 64.219 0.37702 62.6691 0 61.9569C12.3662 62.5602 30.2872 57.5165 37.702 54.9192C48.158 52.0036 59.234 44.4883 63.465 41.0952Z" fill="#FDA600"/>
<circle cx="38.7071" cy="8.79718" r="4.02154" fill="#FDA600"/>
<path d="M23.3753 48.8869H14.5781V59.9462L23.3753 58.0611V48.8869Z" fill="#D9D9D9"/>
<path d="M27.1454 57.307V42.7289H35.6912V54.6679L27.1454 57.307Z" fill="#D9D9D9"/>
<path d="M39.7128 53.1598V35.5655H48.1329V49.5153L39.7128 53.1598Z" fill="#D9D9D9"/>
<path d="M52.0287 47.5045V31.6697H60.0718L60.4488 42.1006L52.0287 47.5045Z" fill="#D9D9D9"/>
<path d="M64.0936 3.05176e-05L65.7806 6.67638L72.0523 3.83273L67.8843 9.31435L74.0179 12.4447L67.1335 12.6038L68.5103 19.351L64.0936 14.0678L59.6769 19.351L61.0536 12.6038L54.1693 12.4447L60.3028 9.31435L56.1349 3.83273L62.4066 6.67638L64.0936 3.05176e-05Z" fill="#FDA600"/>
<path d="M64.0931 58.5637H54.4163C53.4109 65.5009 49.2218 72.4297 47.2529 75.0269C58.5133 70.5027 63.1715 62.1664 64.0931 58.5637Z" fill="#FDA600"/>
</svg>
