<svg
              width="35"
              height="35"
              viewBox="0 0 35 35"
              fill="none"
              xmlns="http://www.w3.org/2000/svg"
            >
              <path
                d="M17.5 29.5312C14.9202 29.5312 13.0638 29.53 11.6164 29.3896C10.1855 29.2509 9.27026 28.9844 8.53982 28.5254C7.70497 28.0009 6.99903 27.295 6.47445 26.4602C6.01562 25.7297 5.74893 24.8145 5.61039 23.3836C5.47003 21.9363 5.46875 20.0798 5.46875 17.5C5.46875 14.9202 5.47003 13.0638 5.61039 11.6164C5.74893 10.1855 6.01562 9.27026 6.47445 8.53982C6.99901 7.70495 7.70495 6.99901 8.53982 6.47445C9.27026 6.01562 10.1855 5.74893 11.6164 5.61039C13.0636 5.47003 14.92 5.46875 17.5 5.46875C20.0798 5.46875 21.9363 5.47003 23.3836 5.61039C24.8145 5.74893 25.7297 6.01562 26.4602 6.47445C27.295 6.99903 28.0009 7.70497 28.5254 8.53982C28.9844 9.27026 29.2509 10.1855 29.3896 11.6164C29.53 13.0638 29.5312 14.9202 29.5312 17.5C29.5312 20.0798 29.53 21.9363 29.3896 23.3836C29.2509 24.8145 28.9844 25.7297 28.5254 26.4602C28.0008 27.295 27.295 28.0008 26.4602 28.5254C25.7297 28.9844 24.8145 29.2509 23.3836 29.3896C21.9363 29.53 20.0798 29.5312 17.5 29.5312Z"
                fill="white"
              />
              <path
                d="M17.5 22.9687C20.5203 22.9687 22.9687 20.5203 22.9687 17.5C22.9687 14.4797 20.5203 12.0312 17.5 12.0312C14.4797 12.0312 12.0312 14.4797 12.0312 17.5C12.0312 20.5203 14.4797 22.9687 17.5 22.9687Z"
                stroke="#FDA600"
                strokeWidth="1.5"
              />
              <path
                d="M24.6094 12.0312C25.5155 12.0312 26.25 11.2967 26.25 10.3906C26.25 9.48453 25.5155 8.75 24.6094 8.75C23.7033 8.75 22.9688 9.48453 22.9688 10.3906C22.9688 11.2967 23.7033 12.0312 24.6094 12.0312Z"
                fill="#FDA600"
              />
            </svg>