 <svg
              width="35"
              height="35"
              viewBox="0 0 35 35"
              fill="none"
              xmlns="http://www.w3.org/2000/svg"
            >
              <path
                d="M12.8939 30.625C9.35565 30.625 6.05737 29.5959 3.28125 27.8202C5.63827 27.9728 9.79789 27.6075 12.3852 25.1396C8.49306 24.961 6.73778 21.976 6.50884 20.7003C6.83954 20.8278 8.41673 20.981 9.30709 20.6238C4.82989 19.5011 4.14305 15.572 4.29568 14.373C5.13516 14.9598 6.55971 15.1639 7.11936 15.1128C2.94743 12.1277 4.44831 7.63739 5.18603 6.66788C8.17996 10.8157 12.6669 13.1453 18.2179 13.2748C18.1133 12.8159 18.058 12.3379 18.058 11.8471C18.058 8.32444 20.9053 5.46875 24.4176 5.46875C26.2527 5.46875 27.9064 6.24832 29.0672 7.49529C30.2935 7.20793 32.1391 6.53523 33.0413 5.9535C32.5865 7.58637 31.1707 8.9485 30.3143 9.45337C30.3073 9.43612 30.3214 9.47054 30.3143 9.45337C31.0665 9.33957 33.1021 8.94837 33.9062 8.4028C33.5086 9.32012 32.0075 10.8453 30.7756 11.6992C31.0049 21.8073 23.2712 30.625 12.8939 30.625Z"
                fill="white"
              />
            </svg>