 <svg
              width="31"
              height="31"
              viewBox="0 0 31 31"
              fill="none"
              xmlns="http://www.w3.org/2000/svg"
            >
              <g clip-path="url(#clip0_1_3393)">
                <path
                  d="M8.27836 26.5504L8.77931 26.8009C10.8666 28.0532 13.2044 28.6377 15.5421 28.6377C22.8894 28.6377 28.9008 22.6263 28.9008 15.279C28.9008 11.7724 27.4814 8.34925 24.9767 5.84451C22.4719 3.33977 19.1323 1.92041 15.5421 1.92041C8.19487 1.92041 2.18348 7.9318 2.26697 15.3625C2.26697 17.8673 3.0184 20.2885 4.27077 22.3758L4.60473 22.8768L3.26887 27.8028L8.27836 26.5504Z"
                  fill="white"
                />
                <path
                  d="M26.396 4.50854C23.5573 1.58634 19.6332 0 15.6256 0C7.10948 0 0.263179 6.92979 0.34667 15.3624C0.34667 18.0342 1.09809 20.6224 2.35047 22.9602L0.179688 30.8918L8.27836 28.8046C10.5326 30.0569 13.0374 30.6414 15.5421 30.6414C23.9748 30.6414 30.8211 23.7116 30.8211 15.2789C30.8211 11.1879 29.2347 7.34725 26.396 4.50854ZM15.6256 28.0531C13.3713 28.0531 11.1171 27.4687 9.19677 26.2998L8.69582 26.0493L3.85331 27.3017L5.10568 22.5427L4.77172 22.0417C1.09809 16.1139 2.85141 8.26566 8.8628 4.59203C14.8742 0.918406 22.6389 2.67173 26.3125 8.68311C29.9861 14.6945 28.2328 22.4592 22.2214 26.1328C20.3011 27.3852 17.9634 28.0531 15.6256 28.0531ZM22.9729 18.7856L22.0545 18.3681C22.0545 18.3681 20.7186 17.7837 19.8837 17.3662C19.8002 17.3662 19.7167 17.2827 19.6332 17.2827C19.3827 17.2827 19.2157 17.3662 19.0488 17.4497C19.0488 17.4497 18.9653 17.5332 17.7964 18.8691C17.7129 19.0361 17.5459 19.1195 17.3789 19.1195H17.2954C17.2119 19.1195 17.045 19.0361 16.9615 18.9526L16.544 18.7856C15.6256 18.3681 14.7907 17.8672 14.1228 17.1992C13.9558 17.0323 13.7053 16.8653 13.5383 16.6983C12.9539 16.1139 12.3694 15.4459 11.952 14.6945L11.8685 14.5275C11.785 14.444 11.785 14.3605 11.7015 14.1936C11.7015 14.0266 11.7015 13.8596 11.785 13.7761C11.785 13.7761 12.119 13.3586 12.3694 13.1082C12.5364 12.9412 12.6199 12.6907 12.7869 12.5237C12.9539 12.2732 13.0374 11.9393 12.9539 11.6888C12.8704 11.2713 11.8685 9.01708 11.618 8.51613C11.451 8.26566 11.2841 8.18216 11.0336 8.09867H10.7831C10.6161 8.09867 10.3656 8.09867 10.1152 8.09867C9.94819 8.09867 9.78121 8.18216 9.61422 8.18216L9.53073 8.26566C9.36375 8.34915 9.19677 8.51613 9.02978 8.59962C8.8628 8.7666 8.77931 8.93359 8.61233 9.10057C8.02789 9.85199 7.69392 10.7704 7.69392 11.6888C7.69392 12.3567 7.8609 13.0247 8.11138 13.6091L8.19487 13.8596C8.94629 15.4459 9.94819 16.8653 11.2841 18.1176L11.618 18.4516C11.8685 18.7021 12.119 18.8691 12.286 19.1195C14.0393 20.6224 16.0431 21.7078 18.2973 22.2922C18.5478 22.3757 18.8818 22.3757 19.1323 22.4592C19.3827 22.4592 19.7167 22.4592 19.9672 22.4592C20.3846 22.4592 20.8856 22.2922 21.2195 22.1252C21.47 21.9583 21.637 21.9583 21.804 21.7913L21.971 21.6243C22.1379 21.4573 22.3049 21.3738 22.4719 21.2068C22.6389 21.0399 22.8059 20.8729 22.8894 20.7059C23.0564 20.3719 23.1398 19.9545 23.2233 19.537C23.2233 19.37 23.2233 19.1195 23.2233 18.9526C23.2233 18.9526 23.1398 18.8691 22.9729 18.7856Z"
                  fill="#FDA600"
                />
              </g>
              <defs>
                <clipPath id="clip0_1_3393">
                  <rect width="31" height="31" fill="white" />
                </clipPath>
              </defs>
            </svg>